<svg xmlns="http://www.w3.org/2000/svg" width="888" height="888" viewBox="1015.371 980.5 888 888" enable-background="new 1015.371 980.5 888 888"><path d="M0 444c0-122.544 43.36-227.203 130.078-313.922S321.456 0 444 0c122.6 0 227.203 43.36 313.922 130.078C844.642 216.798 888 321.456 888 444c0 122.6-43.358 227.203-130.078 313.922C671.204 844.642 566.6 888 444 888c-122.544 0-227.203-43.358-313.922-130.078C43.358 671.202 0 566.6 0 444zm62.19 39.06c3.254 36.457 12.043 72.262 26.365 107.416 19.53 48.174 47.523 90.488 83.98 126.944s78.12 64.45 124.99 83.98c1.303-11.72 3.256-34.18 5.86-67.38s5.208-58.916 7.812-77.145c-2.604-10.416-10.09-27.342-22.46-50.777-12.37-23.437-19.205-42.315-20.506-56.638 0-13.02.326-22.785.978-29.295s.977-11.718.977-15.624c-2.604-1.3-5.86-3.905-9.765-7.81l-7.812-7.813c-5.208-5.208-9.114-8.463-11.718-9.765-7.812-2.604-19.205-6.51-34.178-11.718-14.974-5.208-26.04-9.114-33.2-11.72-7.162-2.603-16.6-6.51-28.32-11.717s-21.81-11.066-30.27-17.577c-8.463-6.51-17.252-13.996-26.367-22.46-9.115-8.463-16.927-17.902-23.436-28.318-5.21 35.153-6.185 70.96-2.93 107.415v.004zM203.78 143.24c11.718-1.302 23.436-1.302 35.154 0 11.718 5.208 24.413 15.624 38.084 31.248s25.064 26.04 34.178 31.248c2.604 2.604 6.51 3.906 11.718 3.906 2.604 6.51 10.416 10.742 23.437 12.694 13.02 1.953 20.832 4.23 23.436 6.836 15.623 9.114 27.992 20.18 37.106 33.2-15.624 22.135-27.993 35.155-37.107 39.062 0 1.302.65 1.952 1.952 1.952 2.604 5.208 1.302 9.114-3.906 11.72-3.906 1.3-11.718 3.254-23.436 5.857-11.718 2.605-19.53 6.186-23.436 10.743-3.906 4.558-7.16 12.695-9.765 24.413 0 2.604-1.303 5.208-3.907 7.812 2.604 18.228 3.255 34.503 1.953 48.824-1.302 14.322-5.86 22.135-13.67 23.437-3.907 0-7.813-.652-11.72-1.954-5.207-1.302-11.392-3.906-18.552-7.812-7.16-3.905-15.298-9.765-24.413-17.576 0 3.905 1.303 8.788 3.907 14.647s3.906 10.09 3.906 12.694h5.86c5.207-1.303 9.113-.327 11.717 2.928s2.604 6.185 0 8.79l-1.953 5.858-1.953 1.953 7.812 3.904c6.51 5.208 12.694 7.812 18.553 7.812 5.857 0 13.344-.65 22.46-1.953 13.02-1.302 23.435-1.953 31.247-1.953 7.812 0 16.6 2.93 26.366 8.79 9.765 5.858 17.252 10.74 22.46 14.646 5.208 3.906 12.37 9.766 21.482 17.577 9.114 7.812 16.926 13.67 23.437 17.577 2.604 1.303 9.765 5.533 21.482 12.694 11.72 7.16 20.507 13.67 26.366 19.53s8.79 12.694 8.79 20.506c-1.303 46.872-9.766 78.77-25.39 95.697-5.208 5.207-12.695 11.392-22.46 18.553-9.766 7.16-17.577 13.996-23.437 20.506-5.858 6.51-10.74 14.322-14.647 23.436-3.906 7.812-5.86 16.926-5.86 27.342-3.905 7.812-9.113 18.88-15.623 33.2-6.51 14.323-11.718 24.088-15.624 29.296 66.4 13.02 131.176 9.114 194.322-11.718S680.966 755.176 725.235 705.7c33.852-36.456 59.24-76.818 76.167-121.086s26.04-89.838 27.342-136.71l-37.106 21.483c-15.625-1.303-23.437 1.302-23.437 7.812l15.625 5.858c2.604 1.302 3.906 2.604 3.906 3.905 2.605 6.51 1.303 13.672-3.905 21.483-3.906 7.812-13.67 19.53-29.295 35.154-1.302 16.926-2.604 27.992-3.906 33.2-2.604 6.51-5.858 13.672-9.765 21.483v13.67c-1.303 5.21-4.232 12.696-8.79 22.46-4.558 9.767-7.487 17.904-8.79 24.414-2.603 18.23-10.415 35.154-23.435 50.778-19.53 18.228-35.806 26.04-48.825 23.436-5.208-1.3-9.766-4.556-13.67-9.764-2.605-9.114-7.162-21.483-13.672-37.107-6.51-15.625-10.416-25.39-11.72-29.296-2.603-6.51-3.905-13.02-3.905-19.53 0-6.51.65-14.32 1.953-23.436 1.303-9.114 1.953-15.624 1.953-19.53 0-6.51-2.28-14.647-6.837-24.413-4.557-9.765-6.836-16.6-6.836-20.506-1.302-3.906 0-10.417 3.906-19.53l-8.79-2.93c-5.858-1.952-16.6-2.93-32.223-2.93h-11.72c-29.944 0-48.824-18.228-56.636-54.684-3.906-22.134.65-43.616 13.67-64.448 1.303-2.604 1.954-5.534 1.954-8.79v-6.835c6.51-1.303 12.37-7.812 17.577-19.53 5.208 0 17.25-1.302 36.13-3.906 18.88-2.604 32.875-4.23 41.99-4.883s20.83.977 35.152 4.883c5.208 3.906 10.416 7.16 15.624 9.766 9.115 6.51 16.928 11.066 23.438 13.67l31.248-21.482c-6.51-10.415-13.02-18.878-19.53-25.388-18.228-20.832-37.106-20.832-56.637 0l-68.356-5.86c-10.416 6.51-23.436 10.417-39.06 11.72-1.302-7.813-3.255-14.322-5.86-19.53-3.905-7.812-6.184-13.997-6.835-18.554s.324-8.137 2.928-10.74l7.812-7.813c5.208-3.906 8.79-9.44 10.742-16.6 1.953-7.163 3.58-15.3 4.883-24.414 1.302-9.113 2.604-15.624 3.906-19.53 3.906-9.113 9.766-19.53 17.578-31.247 3.905-9.114 11.393-16.275 22.46-21.483s22.785-9.765 35.153-13.67c12.37-3.907 25.39-6.51 39.062-7.813 13.67-1.302 26.365-2.604 38.084-3.906-24.738-20.83-50.127-38.408-76.167-52.73-7.813 0-18.555-1.627-32.226-4.883-13.67-3.255-23.11-4.883-28.318-4.883-14.322-1.302-30.598 3.255-48.825 13.67-14.32 10.417-31.247 15.625-50.777 15.625-24.737 0-49.476-4.232-74.214-12.695-24.74-8.462-46.222-17.902-64.45-28.32-42.966 14.323-82.026 35.806-117.18 64.45v.003z"/><path fill="none" stroke="#000" stroke-width="60" stroke-miterlimit="10" d="M528.58 700.666c141.87-141.868 141.87-371.464 0-513.333"/><path d="M1480.974 799.154L1015.37 444 1480.975 88.84zM1589.017 782.47l-56.68-55.797C1609.102 651.103 1651.38 550.71 1651.38 444c0-106.712-42.278-207.1-119.045-282.673l56.68-55.8c46.44 45.717 82.403 99.01 106.888 158.397 23.648 57.356 35.64 117.943 35.64 180.077s-11.99 122.723-35.638 180.076c-24.487 59.39-60.45 112.68-106.888 158.394zM1716.405 888l-56.682-55.8c53.3-52.47 94.558-113.588 122.623-181.655 27.114-65.766 40.863-135.26 40.863-206.545 0-71.288-13.75-140.78-40.865-206.543C1754.28 169.39 1713.023 108.27 1659.72 55.8L1716.402 0c60.924 59.974 108.1 129.88 140.218 207.778 31.022 75.235 46.75 154.712 46.75 236.222 0 81.51-15.728 160.986-46.748 236.224-32.118 77.895-79.292 147.802-140.217 207.776zM2115.24-.015l793.243 793.244-94.748 94.747L2020.49 94.733zM2813.734-.015l94.748 94.747-793.244 793.244-94.747-94.748zM3765.727 94.75L3670.977 0l-444 444 444 444 94.75-94.75L3416.477 444zM1320.993 1191.373L1110.12 980.5l-94.75 94.748 298.917 298.917-100.792-100.793zM1903.37 1773.75l-422.396-422.396v189.498l327.648 327.648zM1480.974 1540.852"/><path d="M1235.798 1256.36L1015.37 1424.5l465.604 355.154v-238.802l-267.48-267.48zM1320.993 1191.373l159.98 159.98v-282.01z"/></svg>