<svg xmlns="http://www.w3.org/2000/svg" width="888" height="888" viewBox="2020.5 980.5 888 888" enable-background="new 2020.5 980.5 888 888"><path d="M2665.747 1040.558c56.543 41.368 84.842 102.255 84.842 182.625 0 23.677-3.946 45.718-11.84 66.1-7.892 20.408-17.756 39.15-29.597 56.228-6.595 10.545-17.755 22.386-33.54 35.516-15.785 13.165-33.54 27.626-53.27 43.406l-45.382 29.596c-10.543 9.22-20.408 18.748-29.594 28.612-9.216 9.865-15.135 20.067-17.757 30.578-3.945 10.545-6.6 25.006-7.896 43.41 0 2.65-.982 5.607-2.957 8.878-1.975 3.3-6.258 4.933-12.823 4.933h-126.276c-6.595 0-10.853-1.297-12.822-3.946-1.976-2.62-2.963-5.24-2.963-7.895 1.296-28.917 3.27-53.272 5.92-73.003 2.62-19.73 9.865-36.16 21.705-49.324 9.187-11.84 20.72-23.676 34.528-35.516 13.81-11.836 27.93-22.997 42.418-33.54 15.785-11.84 32.216-22.997 49.326-33.542 14.46-10.515 25.65-21.705 33.54-33.54 6.57-10.516 12.827-21.368 18.748-32.558 5.914-11.16 8.877-23.34 8.877-36.498 0-24.973-8.568-50.622-25.65-76.952-18.434-23.675-48.68-35.516-90.76-35.516-44.73 0-75.65 14.277-92.732 42.76-18.435 27.255-27.62 57.067-27.62 89.438H2178.41c3.945-106.546 41.436-182.813 112.463-228.873 44.7-27.62 99.3-41.436 163.76-41.436 85.49 0 155.87 20.038 211.114 60.058zm-213.087 628.53c28.922 0 52.934 9.558 72.02 28.608 19.05 19.085 27.928 43.747 26.632 73.988-1.324 30.275-11.835 54.26-31.565 72.015-19.73 17.758-44.085 25.99-73.002 24.66-28.95 0-52.966-9.522-72.017-28.607-19.08-19.05-27.963-43.713-26.634-73.988 1.29-30.24 11.836-54.258 31.565-72.013 19.73-17.76 44.055-25.96 73-24.663z"/></svg>