<svg xmlns="http://www.w3.org/2000/svg" width="888" height="888" viewBox="1015.371 0 888 888" enable-background="new 1015.371 0 888 888"><path d="M1424.234 831.303l-250.216-231.05H1015.37V288.28h158.648L1424.234 56.7v774.605zM1871.96 134.957c0 9.583-4.614 17.036-13.84 22.36-37.983 22.718-75.78 45.436-113.397 68.144-63.177 36.918-99.02 55.368-107.54 55.368-17.752 0-26.618-9.05-26.618-27.15 0-9.933 4.607-17.57 13.842-22.893 37.974-22.708 75.772-45.426 113.396-68.144 63.17-36.907 99.02-55.366 107.54-55.366 17.743 0 26.618 9.234 26.618 27.683zm31.41 311.44c0 17.75-8.874 26.617-26.618 26.617h-239.568c-17.752 0-26.618-8.866-26.618-26.618 0-17.743 8.866-26.62 26.618-26.62h239.568c17.744 0 26.62 8.877 26.62 26.62zm-31.41 315.697c0 18.458-8.874 27.684-26.617 27.684-8.52 0-44.37-18.633-107.54-55.9-37.623-22.707-75.422-45.427-113.396-68.143-9.234-5.324-13.842-12.777-13.842-22.36 0-18.45 8.866-27.683 26.618-27.683 8.52 0 44.363 18.633 107.54 55.9 37.615 22.715 75.413 45.435 113.396 68.143 9.226 5.323 13.84 12.776 13.84 22.36z"/></svg>