<svg id="logo" xmlns="http://www.w3.org/2000/svg" width="368" height="135.752" viewBox="0 0 368 135.752"><path fill="#ED1D24" d="M84.501 22.032l18.916 18.915v-18.915zM49.769 113.811h19.868l-19.868-19.868zM49.769 83.182l30.63 30.629h20.44l-51.07-51.066zM49.769 51.98l53.648 53.648v-21.959l-53.648-53.646zM172.05 22.032l-18.917 18.915v-18.915zM206.781 113.811h-19.869l19.869-19.868zM206.781 83.182l-30.628 30.629h-20.441l51.069-51.066zM206.781 51.98l-53.649 53.648v-21.959l53.649-53.646zM300.142 22.032l-18.913 18.915v-18.915zM334.875 113.811h-19.868l19.868-19.868zM334.875 83.182l-30.63 30.629h-20.439l51.069-51.066zM334.875 51.98l-53.646 53.648v-21.959l53.646-53.646zM236.308 21.935l-18.916 18.915v-18.915zM271.041 113.714h-19.869l19.869-19.866zM271.041 83.084l-30.629 30.631h-20.44l51.069-51.067zM271.041 51.885l-53.649 53.648v-21.961l53.649-53.646zM0 119.23h368v16.521h-368zM0 0h368v16.616h-368zM52.539 22.032h21.2l29.678 29.678v21.198zM204.01 22.032h-21.198l-29.68 29.678v21.198zM332.104 22.032h-21.2l-29.675 29.678v21.198zM268.27 21.935h-21.201l-29.676 29.678v21.198z"/></svg>